<?xml version="1.0" encoding="utf-8"?>
<!-- Generator: Adobe Illustrator 24.2.1, SVG Export Plug-In . SVG Version: 6.00 Build 0)  -->
<svg version="1.0" id="Layer_1" xmlns="http://www.w3.org/2000/svg" xmlns:xlink="http://www.w3.org/1999/xlink" x="0px" y="0px"
	 viewBox="0 0 500 500" enable-background="new 0 0 500 500" xml:space="preserve">
<polygon stroke="#000000" stroke-miterlimit="10" points="0.5,-0.5 0.5,499.5 499.5,500.5 499.5,-0.5 "/>
<g>
	<rect x="62.77" y="137.8" fill="none" width="374.47" height="224.41"/>
	<path fill="#FFFFFF" d="M119.93,208.5c-2.36,1.01-4.85,1.8-7.47,2.37c-2.63,0.57-5.35,0.86-8.18,0.86c-5.39,0-10.39-0.98-15-2.93
		c-4.61-1.95-8.6-4.63-11.97-8.03c-3.37-3.4-6.01-7.41-7.93-12.02c-1.92-4.61-2.88-9.54-2.88-14.8c0-5.25,0.96-10.18,2.88-14.8
		c1.92-4.61,4.56-8.62,7.93-12.02c3.37-3.4,7.36-6.08,11.97-8.03c4.61-1.95,9.61-2.93,15-2.93c5.39,0,10.39,0.98,15,2.93
		c4.61,1.95,8.6,4.63,11.97,8.03c3.37,3.4,6.01,7.41,7.93,12.02c1.92,4.61,2.88,9.54,2.88,14.8c0,5.59-1.04,10.77-3.13,15.55
		c-2.09,4.78-5.02,8.89-8.79,12.32l5.55,8.28l-10.1,6.77L119.93,208.5z M104.58,185.47l10.1-6.87l7.88,11.92
		c1.82-2.09,3.25-4.53,4.29-7.32c1.04-2.79,1.57-5.87,1.57-9.24c0-3.7-0.62-7.09-1.87-10.15c-1.25-3.06-2.96-5.67-5.15-7.83
		c-2.19-2.15-4.75-3.84-7.68-5.05c-2.93-1.21-6.08-1.82-9.44-1.82c-3.37,0-6.51,0.61-9.44,1.82c-2.93,1.21-5.49,2.9-7.68,5.05
		c-2.19,2.16-3.91,4.76-5.15,7.83c-1.25,3.06-1.87,6.45-1.87,10.15c0,3.7,0.62,7.09,1.87,10.15c1.25,3.06,2.96,5.67,5.15,7.83
		c2.19,2.16,4.75,3.84,7.68,5.05c2.93,1.21,6.08,1.82,9.44,1.82c1.48,0,2.89-0.13,4.24-0.4c1.35-0.27,2.66-0.64,3.94-1.11
		L104.58,185.47z"/>
	<path fill="#FFFFFF" d="M185.68,203.65h-0.81c-1.55,2.49-3.64,4.46-6.26,5.91c-2.63,1.45-5.62,2.17-8.99,2.17
		c-6.26,0-10.93-1.92-13.99-5.76c-3.06-3.84-4.6-8.95-4.6-15.35v-30h13.23V189c0,3.57,0.79,6.21,2.37,7.93
		c1.58,1.72,3.89,2.58,6.92,2.58c1.82,0,3.42-0.39,4.8-1.16c1.38-0.77,2.56-1.82,3.54-3.13c0.98-1.31,1.72-2.86,2.22-4.65
		c0.5-1.78,0.76-3.69,0.76-5.71v-24.24h13.23v49.49h-12.42V203.65z"/>
	<path fill="#FFFFFF" d="M255.78,198.19c-2.29,4.04-5.37,7.31-9.24,9.8c-3.87,2.49-8.6,3.74-14.19,3.74
		c-3.77,0-7.26-0.66-10.45-1.97c-3.2-1.31-5.98-3.15-8.33-5.5c-2.36-2.36-4.19-5.13-5.5-8.33c-1.31-3.2-1.97-6.72-1.97-10.55
		c0-3.57,0.64-6.95,1.92-10.15c1.28-3.2,3.06-5.99,5.35-8.38c2.29-2.39,5-4.29,8.13-5.71s6.58-2.12,10.35-2.12
		c3.97,0,7.51,0.66,10.6,1.97c3.1,1.31,5.69,3.13,7.78,5.45c2.09,2.32,3.67,5.07,4.75,8.23c1.08,3.17,1.62,6.6,1.62,10.3
		c0,0.47,0,0.88,0,1.21c-0.07,0.4-0.1,0.77-0.1,1.11c-0.07,0.34-0.1,0.71-0.1,1.11h-37.27c0.27,2.02,0.82,3.75,1.67,5.2
		c0.84,1.45,1.88,2.66,3.13,3.64c1.25,0.98,2.61,1.68,4.09,2.12c1.48,0.44,3,0.66,4.54,0.66c3.03,0,5.54-0.69,7.52-2.07
		c1.99-1.38,3.55-3.11,4.7-5.2L255.78,198.19z M243.76,179c-0.07-0.87-0.35-1.85-0.86-2.93c-0.5-1.08-1.25-2.09-2.22-3.03
		c-0.98-0.94-2.19-1.72-3.64-2.32c-1.45-0.61-3.18-0.91-5.2-0.91c-2.83,0-5.32,0.81-7.47,2.42c-2.16,1.62-3.67,3.87-4.54,6.77
		H243.76z"/>
	<path fill="#FFFFFF" d="M299.31,203.65h-0.81c-1.55,2.49-3.64,4.46-6.26,5.91c-2.63,1.45-5.62,2.17-8.99,2.17
		c-6.26,0-10.93-1.92-13.99-5.76c-3.06-3.84-4.6-8.95-4.6-15.35v-30h13.23V189c0,3.57,0.79,6.21,2.37,7.93
		c1.58,1.72,3.89,2.58,6.92,2.58c1.82,0,3.42-0.39,4.8-1.16c1.38-0.77,2.56-1.82,3.54-3.13c0.98-1.31,1.72-2.86,2.22-4.65
		c0.51-1.78,0.76-3.69,0.76-5.71v-24.24h13.23v49.49h-12.42V203.65z"/>
	<path fill="#FFFFFF" d="M369.4,198.19c-2.29,4.04-5.37,7.31-9.24,9.8c-3.87,2.49-8.6,3.74-14.19,3.74c-3.77,0-7.26-0.66-10.45-1.97
		c-3.2-1.31-5.98-3.15-8.33-5.5c-2.36-2.36-4.19-5.13-5.5-8.33c-1.31-3.2-1.97-6.72-1.97-10.55c0-3.57,0.64-6.95,1.92-10.15
		c1.28-3.2,3.06-5.99,5.35-8.38c2.29-2.39,5-4.29,8.13-5.71s6.58-2.12,10.35-2.12c3.97,0,7.51,0.66,10.61,1.97
		c3.1,1.31,5.69,3.13,7.78,5.45c2.09,2.32,3.67,5.07,4.75,8.23c1.08,3.17,1.62,6.6,1.62,10.3c0,0.47,0,0.88,0,1.21
		c-0.07,0.4-0.1,0.77-0.1,1.11c-0.07,0.34-0.1,0.71-0.1,1.11h-37.27c0.27,2.02,0.82,3.75,1.67,5.2c0.84,1.45,1.88,2.66,3.13,3.64
		c1.25,0.98,2.61,1.68,4.09,2.12c1.48,0.44,3,0.66,4.54,0.66c3.03,0,5.54-0.69,7.52-2.07c1.99-1.38,3.55-3.11,4.7-5.2L369.4,198.19z
		 M357.38,179c-0.07-0.87-0.35-1.85-0.86-2.93c-0.5-1.08-1.25-2.09-2.22-3.03c-0.98-0.94-2.19-1.72-3.64-2.32
		c-1.45-0.61-3.18-0.91-5.2-0.91c-2.83,0-5.32,0.81-7.47,2.42c-2.16,1.62-3.67,3.87-4.54,6.77H357.38z"/>
	<path fill="#FFFFFF" d="M70.04,259h13.43l22.12,38.28h0.81L128.52,259h13.53v72.32h-13.53v-35.65l0.81-12.12h-0.81l-18.38,32.42
		h-8.18l-18.48-32.42h-0.81l0.81,12.12v35.65H70.04V259z"/>
	<path fill="#FFFFFF" d="M183.97,326.06h-0.81c-1.55,1.89-3.42,3.5-5.61,4.85c-2.19,1.35-5,2.02-8.43,2.02
		c-2.56,0-4.97-0.42-7.22-1.26c-2.26-0.84-4.23-2-5.91-3.48c-1.68-1.48-3-3.27-3.94-5.35c-0.94-2.09-1.41-4.38-1.41-6.87
		c0-2.56,0.5-4.86,1.51-6.92c1.01-2.05,2.42-3.82,4.24-5.3c1.82-1.48,3.95-2.61,6.41-3.38c2.46-0.77,5.13-1.16,8.03-1.16
		c3.23,0,5.89,0.25,7.98,0.76c2.09,0.5,3.8,1.03,5.15,1.57V300c0-2.63-1.04-4.8-3.13-6.51c-2.09-1.72-4.68-2.58-7.78-2.58
		c-4.58,0-8.45,1.92-11.62,5.76l-9.59-6.57c5.25-6.6,12.42-9.9,21.51-9.9c7.68,0,13.53,1.8,17.57,5.4c4.04,3.6,6.06,8.94,6.06,16.01
		v29.69h-13.03V326.06z M183.97,311.21c-1.55-0.74-3.15-1.33-4.8-1.77c-1.65-0.44-3.45-0.66-5.4-0.66c-3.17,0-5.61,0.69-7.32,2.07
		c-1.72,1.38-2.58,3.08-2.58,5.1c0,2.02,0.82,3.64,2.47,4.85c1.65,1.21,3.55,1.82,5.71,1.82c1.75,0,3.37-0.32,4.85-0.96
		c1.48-0.64,2.74-1.48,3.79-2.53c1.04-1.04,1.85-2.25,2.42-3.64C183.68,314.13,183.97,312.69,183.97,311.21z"/>
	<path fill="#FFFFFF" d="M219.92,288.29h0.81c1.55-2.49,3.64-4.46,6.26-5.91c2.63-1.45,5.62-2.17,8.99-2.17
		c3.1,0,5.82,0.5,8.18,1.51c2.36,1.01,4.29,2.44,5.81,4.29c1.52,1.85,2.66,4.07,3.43,6.67c0.77,2.59,1.16,5.47,1.16,8.63v30h-13.23
		v-28.38c0-3.57-0.79-6.21-2.37-7.93c-1.58-1.72-3.89-2.58-6.92-2.58c-1.82,0-3.42,0.39-4.8,1.16c-1.38,0.78-2.56,1.82-3.53,3.13
		c-0.98,1.31-1.72,2.86-2.22,4.65c-0.5,1.79-0.76,3.69-0.76,5.71v24.24H207.5v-49.49h12.42V288.29z"/>
	<path fill="#FFFFFF" d="M295.47,326.06h-0.81c-1.55,1.89-3.42,3.5-5.61,4.85c-2.19,1.35-5,2.02-8.43,2.02
		c-2.56,0-4.97-0.42-7.22-1.26c-2.26-0.84-4.23-2-5.91-3.48c-1.68-1.48-3-3.27-3.94-5.35c-0.94-2.09-1.41-4.38-1.41-6.87
		c0-2.56,0.5-4.86,1.51-6.92c1.01-2.05,2.42-3.82,4.24-5.3c1.82-1.48,3.96-2.61,6.41-3.38c2.46-0.77,5.13-1.16,8.03-1.16
		c3.23,0,5.89,0.25,7.98,0.76c2.09,0.5,3.8,1.03,5.15,1.57V300c0-2.63-1.04-4.8-3.13-6.51c-2.09-1.72-4.68-2.58-7.78-2.58
		c-4.58,0-8.45,1.92-11.62,5.76l-9.59-6.57c5.25-6.6,12.42-9.9,21.51-9.9c7.68,0,13.53,1.8,17.57,5.4c4.04,3.6,6.06,8.94,6.06,16.01
		v29.69h-13.03V326.06z M295.47,311.21c-1.55-0.74-3.15-1.33-4.8-1.77c-1.65-0.44-3.45-0.66-5.4-0.66c-3.17,0-5.61,0.69-7.32,2.07
		c-1.72,1.38-2.58,3.08-2.58,5.1c0,2.02,0.82,3.64,2.47,4.85c1.65,1.21,3.55,1.82,5.71,1.82c1.75,0,3.37-0.32,4.85-0.96
		c1.48-0.64,2.74-1.48,3.79-2.53c1.04-1.04,1.85-2.25,2.42-3.64C295.18,314.13,295.47,312.69,295.47,311.21z"/>
	<path fill="#FFFFFF" d="M341.32,354.74c-3.5,0-6.62-0.45-9.34-1.36c-2.73-0.91-5.1-2.09-7.12-3.54c-2.02-1.45-3.7-3.05-5.05-4.8
		c-1.35-1.75-2.32-3.5-2.93-5.25l12.63-5.05c0.94,2.63,2.49,4.66,4.65,6.11c2.15,1.45,4.55,2.17,7.17,2.17
		c4.17,0,7.47-1.36,9.9-4.06c2.42-2.71,3.64-6.44,3.64-11.19v-3.43h-0.81c-1.55,2.16-3.59,3.86-6.11,5.1
		c-2.53,1.25-5.5,1.87-8.94,1.87c-2.96,0-5.84-0.6-8.64-1.8c-2.79-1.2-5.27-2.92-7.42-5.15c-2.16-2.23-3.91-4.92-5.25-8.05
		c-1.35-3.13-2.02-6.63-2.02-10.5c0-3.87,0.67-7.38,2.02-10.55c1.35-3.17,3.1-5.87,5.25-8.1c2.15-2.23,4.63-3.95,7.42-5.15
		c2.79-1.2,5.67-1.8,8.64-1.8c3.43,0,6.41,0.62,8.94,1.87c2.52,1.25,4.56,2.95,6.11,5.1h0.81v-5.35h12.63v45.96
		c0,4.17-0.64,7.93-1.92,11.26c-1.28,3.33-3.06,6.16-5.35,8.48c-2.29,2.32-5.03,4.11-8.23,5.35
		C348.78,354.12,345.23,354.74,341.32,354.74z M341.83,319.39c1.62,0,3.21-0.3,4.8-0.89c1.58-0.59,2.98-1.47,4.19-2.63
		c1.21-1.16,2.19-2.58,2.93-4.26c0.74-1.69,1.11-3.62,1.11-5.8c0-2.18-0.37-4.13-1.11-5.85c-0.74-1.72-1.72-3.16-2.93-4.31
		c-1.21-1.16-2.61-2.03-4.19-2.63c-1.58-0.59-3.18-0.89-4.8-0.89c-1.62,0-3.2,0.3-4.75,0.89c-1.55,0.6-2.93,1.49-4.14,2.68
		c-1.21,1.19-2.19,2.63-2.93,4.31c-0.74,1.69-1.11,3.62-1.11,5.8c0,2.18,0.37,4.12,1.11,5.8c0.74,1.69,1.72,3.11,2.93,4.26
		c1.21,1.16,2.59,2.03,4.14,2.63C338.63,319.1,340.21,319.39,341.83,319.39z"/>
	<path fill="#FFFFFF" d="M425.15,319.39c-2.29,4.04-5.37,7.31-9.24,9.8c-3.87,2.49-8.6,3.74-14.19,3.74
		c-3.77,0-7.26-0.66-10.45-1.97c-3.2-1.31-5.98-3.15-8.33-5.5c-2.36-2.36-4.19-5.13-5.5-8.33c-1.31-3.2-1.97-6.72-1.97-10.55
		c0-3.57,0.64-6.95,1.92-10.15c1.28-3.2,3.06-5.99,5.35-8.38c2.29-2.39,5-4.29,8.13-5.71s6.58-2.12,10.35-2.12
		c3.97,0,7.51,0.66,10.61,1.97c3.1,1.31,5.69,3.13,7.78,5.45c2.09,2.32,3.67,5.07,4.75,8.23c1.08,3.17,1.62,6.6,1.62,10.3
		c0,0.47,0,0.88,0,1.21c-0.07,0.4-0.1,0.77-0.1,1.11c-0.07,0.34-0.1,0.71-0.1,1.11h-37.27c0.27,2.02,0.82,3.75,1.67,5.2
		c0.84,1.45,1.88,2.66,3.13,3.64c1.25,0.98,2.61,1.68,4.09,2.12c1.48,0.44,3,0.66,4.54,0.66c3.03,0,5.54-0.69,7.52-2.07
		c1.99-1.38,3.55-3.11,4.7-5.2L425.15,319.39z M413.13,300.2c-0.07-0.88-0.35-1.85-0.86-2.93c-0.5-1.08-1.25-2.09-2.22-3.03
		c-0.98-0.94-2.19-1.72-3.64-2.32c-1.45-0.61-3.18-0.91-5.2-0.91c-2.83,0-5.32,0.81-7.47,2.42c-2.16,1.62-3.67,3.87-4.54,6.77
		H413.13z"/>
</g>
<g>
	<rect x="401.79" y="139.97" fill="none" width="49.21" height="29.03"/>
	<path fill="#FFFFFF" d="M408.74,162.16v-18.23h-6.2v-3.97h16.58v3.97h-6.2v18.23H408.74z"/>
	<path fill="#FFFFFF" d="M422.1,139.97h4.12l6.79,11.75h0.25l6.79-11.75h4.15v22.2h-4.15v-10.94l0.25-3.72h-0.25l-5.64,9.95h-2.51
		l-5.67-9.95h-0.25l0.25,3.72v10.94h-4.12V139.97z"/>
</g>
<g>
</g>
<g>
</g>
<g>
</g>
<g>
</g>
<g>
</g>
<g>
</g>
<g>
</g>
<g>
</g>
<g>
</g>
<g>
</g>
<g>
</g>
</svg>
